<svg xmlns="http://www.w3.org/2000/svg" version="1.1" xmlns:xlink="http://www.w3.org/1999/xlink" xmlns:svgjs="http://svgjs.dev/svgjs" viewBox="0 0 1422 800"><defs><linearGradient x1="50%" y1="0%" x2="50%" y2="100%" id="ssscribble-grad"><stop stop-color="hsl(268, 75%, 57%)" stop-opacity="1" offset="0%"></stop><stop stop-color="hsl(282, 90%, 56%)" stop-opacity="1" offset="100%"></stop></linearGradient></defs><g fill="none" stroke-width="1.25" stroke="hsl(268, 73%, 56%)" stroke-linecap="round"><path d="M1235.89 190.9C1388.16 221.4 1674.8 241.1 1903.74 251.25 1930.93 262.58 1739.41 266.89 1453.12 267.6 1241.49 274.13 1225.72 283.51 1400.78 301.87 1662.38 334.63 1854.64 385.19 1875.43 459.05 1715.78 552.04 1457.42 668.8 1224.46 805.24 1113.86 943.24 1165.18 1079.02 1336.8 1194.81 1552.35 1270.04 1711.14 1295.43 1753.69 1260.5 1667.67 1173.99 1484.57 1045.18 1267.49 900.08 1070.91 781.43 949.59 715.49 919.42 731.15 975.86 835.15 1089.31 1011.83 1221.31 1222.52 1350.19 1407.01 1439.21 1516.53 1477.4 1512.77 1466.88 1398.3 1409.94 1208.03 1322.16 1010.14 1208.82 886.87 1089.78 887.61 976.73 1024.26 863.52 1248.67 766.35 1477.17 686.29 1614.83 611.63 1602.01 551.76 1441.58 503.9 1202.28 458.12 998.12 420.59 922.7 390.1 1017.84 359.6 1241.1 336.85 1480.72 323.23 1624.13 311.69 1609.28 313.03 1443.35 330.18 1203.62 352.73 990.56 393.4 892.32 451.28 939.96 508.99 1109.07 573.88 1322.57 634.36 1494.02 669.3 1563.03 674.7 1501.83 635.14 1336.47 546.88 1118.51 409.24 918.82 233.37 791.64 54.36 763.79 -104.47 833.06 -204.55 966.87 -218.01 1129.63 -138.56 1269.02 18.04 1352.01 195.14 1365.58 340.18 1305.35 390.19 1189.04 311.63 1033.5 118.88 869.48 -128.41 720.08 -331.79 594.12 -412.66 507.71 -329.25 460.39 -123.5 448.86 109.99 465.64 247.3 499.22 204.15 549.24 -7.95 599.71 -286.77 643.31 -479.03 687.69 -477.83 718.88 -277.96 735.89 -3.44 749.95 179.09 750.86 145.87 740.04 -89.1 728 -378.83 706.41 -531.1 675.92 -441.06 645.42 -171.63 606.74 96.77 559.39 194.99 510.8 66.71 451.37 -197.13 379.8 -435.22 305.28 -499.29 217.6 -357.37 117.9 -89.21 18.96 156.78 -85.66 257.9 -188.53 173.1 -274.97 -40.37 -343.3 -265.79 -381.85 -398.36 -384.62 -371.82 -346.83 -204.48 -267.88 38.05 -165.49 257.85 -46.87 382.1 65.04 380.68 137.73 268.88 156.1 100.96 102.58 -71.37 -20.36 -184.7 -197.81 -211.85 -396.57 -150.6 -566.41 -18.16 -669.65 150.41 -673.58 331.74 -578.17 487.84 -408.05 601.87 -217.29 671.88 -79.11 694.76 -42.74 682.79 -134.07 640.63 -327.85 586.72 -561.21 533.78 -747.55 475.98 -812.43 431.7 -728.79 403.88 -527.52 379.49 -299.55 371.42 -142.57 377.91 -133.71 386.1 -283.1 405.92 -525.81 436.42 -749.08 466.92 -844.28 507.36 -765.81 558.57 -555.64 611.49 -310.3 678.09 -140.87 759.99 -116.24 845.33 -242.1 946.1 -456.02 1059.23 -663.24 1167.5 -782.71 1275.58 -763.62 1370.59 -618.02 1435.41 -397.78 1464.07 -182.65 1444.12 -40.96 1380.17 -9.98 1272.68 -89.92 1138.36 -242.65 1016.78 -421.58 929.73 -564.31 912.11 -632.32 982.9 -612 1138.11 -508.01 1350.41 -349.4 1558.3 -164.33 1708.17 6.35 1745.6 136.5 1657.36 215.08 1471.52 235.11 1260.73 206.89 1125.15 138.11 1128.16 50.96 1287.93 -36.97 1540.56 -123.33 1778.88 -188.56 1886.03 -228.71 1807.27 -249.73 1581.13 -246.13 1330.18 -223.57 1205.46 -186.61 1284.1 -139.5 1533.96 -88.51 1809.58 -31.71 1946.84 22.5 1854.64 70.58 1592.27 119.83 1325.93 160.4 1235.89 190.9Q1235.89 190.9 1235.89 190.9" opacity="0.40"></path><path d="M1189.08 41.67C1326.44 70.56 1594.14 100.89 1829.54 133.69 1899.02 168.04 1762.43 207.82 1501.87 255.79 1257.2 309 1157.54 374.49 1243.32 454.6 1464.5 541.65 1699.03 643.29 1830.39 756.94 1800.06 868.69 1621.63 980.93 1377.3 1082.98 1162.14 1159.7 1060.19 1206.14 1095.49 1211.35 1245.46 1174.94 1440.44 1095.76 1605.42 982.19 1690.7 860.84 1665.15 746.51 1543.87 667.07 1357.45 649.52 1158.87 703.14 992.22 829.36 880.92 1004.59 842.8 1198.62 868.81 1366.48 948.19 1462.84 1052.45 1463.27 1157.1 1362.78 1255.78 1194.91 1324.76 1006.91 1360.14 863.1 1367.76 820.71 1345.49 899.06 1302.45 1081.4 1241.92 1306.11 1173.72 1496.87 1105.78 1580.45 1032.43 1524 966.58 1346.46 911.67 1117.29 856.04 935.66 813.18 876.64 784.29 971.06 755.4 1180.97 741.16 1411.14 740.52 1563.82 739.15 1579.58 749.54 1452.03 768.41 1236.15 781.87 1013.88 796.54 869.42 804.65 849.21 795.27 955 766.23 1139.9 708.55 1333.34 623.09 1473.27 505.29 1509.19 359.17 1434.17 207.08 1270.6 56.77 1067.85 -67.13 880.65 -137.67 749.32 -142.56 702.74 -72.59 739.55 52.71 845.71 211.62 985.34 360.18 1122.3 443.59 1234.31 433.08 1293.05 313.68 1292.55 114.58 1236.07 -112.55 1134.41 -292.61 1006.31 -357.99 861.42 -284.03 722.21 -94.64 600.58 123.91 496.6 278.8 420.41 287.95 369.72 135.41 340.51 -117.92 329.37 -355.41 329.11 -457.5 340.29 -371.63 353.14 -138.11 362.51 111.3 375.33 239.37 380.07 164.18 374.51 -76.92 369.43 -347.55 352.86 -484.91 323.97 -403.25 295.08 -154.35 254.56 110.57 203.36 240.7 152.66 166.17 92.47 -60.68 25.16 -313.91 -38.68 -449.97 -105.05 -401.09 -168.66 -193.65 -220.82 67.44 -261 259.58 -281.86 303.2 -281.26 189.04 -253.9 -17.46 -197.37 -227.11 -123.18 -343.69 -30.02 -325.12 70.33 -179.82 153.91 37.32 212.57 252.08 227.73 406.88 186.91 459.45 88.52 411.98 -61.34 285.36 -236.16 128.85 -411.86 -11.45 -552.15 -109.89 -623.09 -138.58 -608.7 -99.42 -507.47 -1.34 -350.37 133.85 -175.61 281.66 -37.8 433.32 11.47 564.2 -47.96 666.8 -209.05 745.22 -423.66 794.26 -627.38 821.07 -749.49 829.55 -745.62 827.64 -614.99 823.29 -403.88 812.21 -199.14 806.76 -80.06 810.93 -101.49 813.93 -259.85 829.2 -492.93 858.09 -702.86 886.98 -797.33 928.81 -735.43 982.09 -548.11 1034.2 -313.22 1095.1 -127.15 1160.66 -59.52 1219.5 -131.92 1274.93 -308.87 1318.87 -517.28 1344.47 -683.33 1346.75 -742.9 1318.4 -679.35 1265.87 -514.37 1183.81 -302.83 1079.59 -109.18 979.22 17.09 890.07 44.66 836.52 -21.6 841.89 -159.37 913.58 -321.23 1053.36 -462.35 1235.01 -554.46 1431.19 -572.03 1595.68 -516.62 1681.02 -399.31 1664.51 -245.31 1543.82 -82.62 1363.18 72.28 1178.19 194.46 1062.98 275.41 1074.49 314.73 1219.07 314.34 1454.49 285.06 1686.76 230.44 1824.47 167.03 1802.03 105.35 1631.07 41.77 1388.77 -8.55 1197.64 -43.19 1165.07 -70.87 1314.92 -82.85 1579.3 -81.57 1817.31 -75.05 1900.34 -59.38 1775.93 -37.45 1516.71 -13.98 1270.74 12.78 1189.08 41.67Q1189.08 41.67 1189.08 41.67" opacity="0.62"></path><path d="M1142.9 272.46C1269.68 299.74 1518.76 337.63 1753.81 385.86 1855.38 434.47 1770.36 493.94 1547.04 563.79 1293.57 633.57 1131.61 712.28 1128.36 797.08 1278.53 876.69 1504.02 955.51 1700.52 1026.69 1788.37 1080.7 1728.79 1115.39 1551.11 1123.03 1319.06 1103.13 1118.49 1051.68 1010.92 970.16 1021.26 874.78 1134.35 769.53 1301.46 671.57 1474.18 605.69 1593.27 582.06 1630.19 615.28 1580.04 707.08 1456.56 850.55 1292.3 1026.48 1112.57 1199.06 955.42 1339.46 840.74 1414.31 774.05 1405.06 759.2 1311.56 784.66 1154.35 844.43 981.41 918.59 837.34 992.69 770.36 1068.79 808.92 1128.64 947.57 1169.2 1151.17 1199.59 1355.99 1211.16 1499.11 1207.73 1529.57 1197.1 1436.62 1177.38 1249.39 1152.65 1034.27 1125.89 875.43 1098.05 831.65 1070.76 924.85 1043.47 1121.49 1017.39 1341.15 991 1500.04 962.58 1542.91 929.93 1453.72 889.1 1268.46 841.07 1050.53 778.95 874.86 699.05 794.9 608.99 831 500.68 964 377.3 1144.87 255.91 1320.89 135.63 1434.02 31.06 1454.88 -39.19 1380.28 -67.84 1230.66 -43.2 1045.8 29.42 863.22 145.95 724.67 286.63 651.97 411.86 651.8 497.87 715.4 512.25 820.35 439.57 948.94 286.42 1068.81 81.49 1159.88 -117.84 1215.28 -261.31 1223.54 -300.05 1188.92 -220.9 1116.79 -46.76 1018.56 160.93 907.38 314.28 785.8 351.62 669.75 243.77 565.79 27.27 469.46 -215.98 390.25 -381.54 327.05 -393.69 273.69 -244.76 232.59 -1.82 199.96 210.96 172.71 287.95 149 180.98 125.84 -59.46 104.08 -311.3 80.12 -438.08 52.84 -368.52 25.55 -142.52 -4.41 115.97 -35.8 274.83 -65.79 255.81 -94.45 78 -118.66 -169.02 -137.49 -358.16 -146.93 -401.86 -143.08 -282.91 -129.38 -55.91 -98.63 179.73 -49.6 333.38 7.07 348.19 77.01 232.81 153.78 36.12 220.16 -157.07 274.89 -276.3 304.98 -285.5 297.54 -180.88 248.66 -0.58 154.22 208.86 24.11 387.35 -133.22 497.25 -297.57 523.72 -438.29 470.94 -535.94 365.3 -567.99 228.72 -527.51 101.09 -419.34 6.63 -265.17 -47.48 -108.72 -49.19 14.44 -5.8 64.7 76.07 19.5 181.46 -115.85 295.44 -311.87 417.69 -512.74 530.35 -663.51 628.05 -715 718.81 -650.44 792.3 -487.8 850.69 -280.4 902.71 -105.67 944.29 -24.51 978.85 -72.77 1011.45 -237.06 1040.73 -459.49 1068.01 -656.13 1095.3 -749.33 1119.95 -702.79 1140.5 -538.55 1159.09 -318.03 1169.88 -122.77 1169.32 -19.29 1162.39 -39.22 1139.45 -169.31 1098.19 -358.73 1050 -546.93 985.81 -667.82 910.84 -686.38 844.15 -599.4 784.87 -433.09 747.79 -235.82 749.2 -54.27 794.4 65.66 890.58 103.33 1027.09 56.89 1195.34 -53.12 1370.96 -193.48 1515.64 -337.19 1605.89 -446.6 1615.18 -502.64 1541.04 -500.09 1396.61 -439 1219.38 -334.08 1071.3 -197.08 997.06 -51.21 1034.68 86.21 1182.31 209.78 1401.96 304.73 1622.99 369.44 1762.7 406.6 1770.13 418.02 1636.48 411.3 1420.83 387.4 1211.59 357.05 1108.05 326.94 1167.14 291.65 1369.31 263.49 1626.87 245.16 1815.21 226.77 1842.26 219.67 1688.8 224.21 1435.7 229.13 1212.46 245.17 1142.9 272.46Q1142.9 272.46 1142.9 272.46" opacity="0.59"></path><path d="M1096.4 638.12C1211.07 663.8 1440.34 697.27 1671.84 737.44 1801.04 776.7 1767.3 820.74 1590.99 866.92 1348.84 908.9 1145.66 948.5 1060.63 981.28 1121.54 1003.87 1295.03 1013.23 1505.22 1004.78 1675.19 981.3 1737.3 937.17 1674.53 872.61 1508.66 799.72 1296.28 716.41 1102.41 632.31 974.99 565.82 945.4 521.48 1007.82 512.55 1140.92 548 1298.67 629.53 1438.47 754.57 1535.05 905.55 1562.82 1067.82 1522.75 1215.82 1423.51 1320.36 1286.53 1364.34 1136.41 1334.62 985.01 1238.78 856.68 1093 760.1 930.19 694.2 796.6 662.24 724.23 656.63 739.84 674.41 845.98 704.59 1020.78 738.25 1221.07 779.73 1389.71 814.96 1480.04 840 1461.59 865.43 1340.38 878.33 1150.6 878.18 952.8 877.56 816.62 864.47 786.87 838.79 878.35 813.11 1061.81 775.45 1270.03 726.04 1432.14 676.17 1498.21 613.98 1446.01 540.12 1296.06 466.64 1094.47 383.85 903.69 295.77 777.23 215.52 746.23 139.72 813.78 77.44 953.2 38.55 1127.28 27.1 1283.21 50.84 1381.78 105.25 1403.16 192.64 1341.28 304.47 1214.12 415 1045.92 513.75 873.36 576.25 726.94 579.58 624.96 516.54 581.99 386.3 595.29 212.84 658.62 23.04 752.81 -140.37 858.06 -233.12 965.18 -232.13 1052.22 -131.45 1110.44 35.67 1140.42 223.17 1136.66 366.13 1104.42 405.99 1047.5 322.96 973.62 134.16 891.14 -94.85 799.05 -285.05 708.82 -360.45 625.03 -289.92 541.14 -99.01 467.26 133.22 404.1 299.62 342.88 325.81 291.62 191.53 249.61 -45.05 208.39 -276.92 175.04 -391.59 149.35 -331.39 123.67 -127.31 106.27 120.23 97.46 298.53 89.44 328.22 91.41 204.29 104.2 -16.43 118.92 -231.1 145.22 -349.03 182.52 -325.65 219.72 -170.59 264.33 52.41 311.93 265.45 349.9 392.75 380.39 400.53 395.15 293.74 385.23 118.93 348.07 -60.87 278.52 -195.03 180.73 -238.87 55.47 -185.97 -88.38 -50.78 -230.38 129.56 -359.84 312.28 -456.85 467.66 -503.83 564.51 -492.92 595.98 -421.28 564.85 -305.2 487.56 -161.23 386.93 -19.77 273.76 80.66 175.14 117.67 103.05 73.41 56.39 -48.04 44.25 -224.9 61.47 -417.8 103.15 -576.06 162.7 -660.36 231.13 -643.88 310 -531.92 387.32 -353.42 458.03 -161.74 530.7 -21.68 593.03 22.99 643.51 -48.12 693.94 -215.28 732.28 -426.1 757.96 -609.57 783.64 -701.1 796.06 -668.79 795.65 -527.55 795.19 -324.68 782.15 -127.33 757.92 3.81 735.63 32.2 705.89 -45.84 673.61 -199.97 651.77 -385.77 637.84 -543.86 640.66 -631.19 667.95 -628 723.49 -534.71 812.32 -378.22 926.57 -192.5 1066.12 -21.82 1218.88 100.75 1359.1 157.22 1474.6 141.84 1542.49 67.63 1547.75 -50.03 1486.17 -180.25 1364.45 -297.57 1215.39 -388.95 1067.09 -435.22 962.23 -433.94 939.65 -388.26 1012.09 -305.7 1172.99 -199.63 1379.54 -75.95 1579.24 48.3 1708.94 163.35 1724.07 270.08 1617.69 357.6 1423.48 425.59 1219.28 478.54 1080.95 514.8 1072.06 538.81 1204.49 552.61 1431.42 560.59 1662.06 567.04 1795.9 569.29 1773.77 574.54 1600.55 585.31 1358.07 595.16 1156.6 612.44 1096.4 638.12Q1096.4 638.12 1096.4 638.12" opacity="0.98"></path><path d="M1049.9 751.41C1152.95 775.49 1362.04 796.8 1586.04 814.58 1735.88 831.32 1748.93 842.54 1624.72 846.33 1411.89 846.56 1192.81 836.51 1045.51 814.39 1016.57 787.12 1109.54 747.04 1283.05 694.99 1479.62 641.95 1628.2 582.75 1684.32 523.32 1634.61 476.85 1494.51 443.56 1306.47 432.52 1113.99 451.64 966.53 503.43 891.11 590.46 896.11 704.92 971.33 842.34 1090.12 989.35 1230.47 1123.56 1355.67 1231.79 1443.83 1295.2 1487.49 1302.09 1477.69 1249.25 1422.24 1142.29 1328.24 1005.29 1212.08 859.86 1089.09 738.3 962.07 673.83 848.27 682.2 752.93 769.67 671.32 920.15 610.45 1104.28 566.92 1279.61 535.88 1401.04 515.79 1438.27 501.55 1377.88 493.13 1237.27 484.69 1051.55 472.85 873.64 462.37 759.61 445.73 742.59 421.65 831.85 397.57 1002.25 366.64 1198.22 330.22 1360.67 295.16 1445.75 257.4 1427.89 220.41 1315.73 189.24 1140.27 164.73 950.1 152.09 793.71 151.94 706.11 170.05 705.52 209.94 784.68 263.55 923.38 336.67 1082.3 424.15 1223.58 507.61 1321.2 585.39 1351.57 642.29 1312.48 660.63 1212.15 634.59 1070.85 556.49 914.29 433.88 761.51 275.62 637.45 103.71 554.4 -46.63 516.46 -151.89 523.52 -185.33 566.25 -138.34 639.03 -17.68 724.77 149.72 810.67 312.69 894.82 429.45 962.03 457.69 1008.35 380.09 1037.56 211.9 1044.41 -2.31 1032.43 -193.47 1005.31 -302.11 965.87 -286.76 919.32 -153.05 865 54.52 809.74 258.06 757.16 372.98 702.06 352.85 652.78 198.25 611.12 -30.51 569.04 -242.04 535.56 -345.09 511.48 -293.64 487.4 -111.32 473.3 121.93 468.48 312.27 463.24 383.97 466.31 315.57 476.01 136.42 483.18 -77.86 493.84 -245.3 504.48 -309.18 507.35 -245.72 504.04 -81.49 489.44 131.63 459.7 324.07 412.18 442 343.44 458.72 257.59 377.48 152.01 231.83 30.76 60.41 -92.24 -83.43 -213.82 -165.38 -321.05 -171.38 -398.25 -99.97 -438.38 28.28 -432.01 192.36 -380.53 357.81 -286.53 499.28 -162.19 605.06 -34.05 661.44 80.44 671.46 155.72 639.42 169.76 579.01 116.08 505 -2.99 419.82 -165.74 342.39 -344.28 279.91 -500.64 226.96 -597.47 194.37 -612.58 180.32 -538.59 177.75 -395.8 189.02 -217.14 209.46 -50.96 235.91 51.93 265.87 62.73 295.83 -27.06 327.3 -194.25 355.78 -392.66 379.85 -563.07 403.93 -652.38 423.04 -632.95 438.46 -514.19 455.39 -331.53 471.64 -138.71 490.6 11.2 515.56 80.9 548.9 55.2 595.15 -52.61 652.88 -214.35 728.24 -382.82 822.9 -515.66 927.11 -585.49 1045.23 -574.26 1169.94 -488.33 1283.48 -345.3 1382.27 -176.54 1451.42 -14.46 1478.5 117.56 1457.96 197.22 1386.63 218.76 1279.6 183.79 1147.22 105.6 1014.7 2.95 917.99 -112.49 876.63 -216.85 911.07 -296.86 1021.44 -349.45 1192.1 -365.41 1388.59 -347.42 1559.31 -299.28 1663.88 -227.61 1668.64 -141.61 1572.18 -42.64 1399.36 57.23 1203.87 151.99 1057.3 245.77 1009.51 328.61 1086.98 399.57 1268.01 465.36 1493.79 520.01 1682.23 565.19 1759.92 606.81 1695.31 641.8 1509.73 671.96 1281.23 701.06 1101.35 727.34 1049.9 751.41Q1049.9 751.41 1049.9 751.41" opacity="0.09"></path><path d="M1003.39 492.26C1095.28 514.74 1284.01 527.67 1497.01 531.29 1660.44 534.74 1713.95 528.67 1642.97 513.47 1472.99 498.45 1262.37 475.26 1078.76 445.66 974.42 419.27 977.56 390.56 1078.32 363.73 1245.45 347.48 1423.46 340.77 1561.87 349.29 1628.73 377.34 1605.18 427.16 1502.04 501.4 1341.89 594.95 1163.45 708.19 1002.88 834.69 883.58 959.23 826.01 1075.87 830.48 1170.58 891.18 1229.26 988.57 1245.18 1100.59 1212.23 1215.91 1136.46 1310.22 1024.2 1373.39 891.84 1405.31 767.14 1400.59 668.22 1365.3 617.86 1303.53 631.76 1224.6 711.19 1137.85 847.16 1042.07 1013.9 949.95 1182.15 866.08 1316.26 783.4 1385.4 712.23 1373.56 652.75 1280.22 596.01 1129.19 549.5 953.35 512.02 797.16 475.56 704.45 446.29 698.79 423.82 785.34 401.35 942.81 386.2 1125.83 378.9 1285.94 372.61 1385.64 375.99 1398.45 390.35 1324.39 407.46 1182.13 437 1006.6 478.91 838.12 522.01 710.13 574.22 648.83 631.06 661.17 678.86 741.77 719.81 867.95 744.69 1010.72 743.08 1146.56 711.99 1245.54 645.43 1292.4 547.63 1282.85 419.87 1218.46 272.4 1112.53 128.22 977.56 -0.01 835 -90.16 702.12 -124.08 587.61 -94.56 504.88 -1.8 456.62 132.23 442.12 285.65 457.71 422.41 495.31 502.14 552.67 503.92 617.22 417.01 681.08 258.56 746.53 62.24 801.71 -121.36 844.08 -238.58 879.47 -256.35 900.77 -164.7 909.48 6.23 911.33 206.11 903.62 367.43 889.04 429.73 870.82 369.6 849.06 201.74 825.84 -15.71 801.66 -206.71 777.91 -298.6 755.44 -255.25 732.97 -94.28 712.31 121.87 692.72 317.07 672.17 422.61 650.8 407.45 626.64 279.81 598.85 88.89 564.94 -99.32 522.32 -228.68 472.85 -256.29 411.64 -178.34 337.31 -17.74 256.01 178.11 162.85 357.09 60.51 479.93 -40.24 519.03 -140.6 475.03 -232.61 362.07 -304.85 215.19 -353.9 70.85 -371.56 -46.46 -355.47 -108.5 -303.6 -108.34 -218.55 -48.95 -115.13 57.43 -0.62 190.67 107.82 338.16 187.23 476.02 226.61 591.04 212.78 680.52 142.53 735.96 21.79 760.61 -134.07 757.54 -296.89 734.01 -441.38 698.87 -538.47 651.17 -567.31 603.72 -520.66 562.03 -405.37 518.96 -249.58 486.45 -84.78 465.66 48.82 446.53 114.23 438.82 94.84 441.88 -9.27 445.71 -173.8 458.99 -359.1 481.46 -516.58 503.93 -603.17 535.07 -595.27 575 -498.15 615.71 -337.52 666.55 -155.07 728.06 4.64 791.23 106.68 865.36 129.27 949.2 72.83 1031.66 -48.57 1119.02 -202.2 1205.67 -352.47 1279.75 -471.98 1341.25 -533.11 1381.22 -526.98 1393.47 -456.58 1373.85 -335.89 1319 -187.81 1238.61 -32.04 1134.2 105.24 1018.86 207.54 917.78 267.03 842.25 279.16 812.31 249.94 841.6 184.68 931.69 98.9 1075.54 6.51 1246.41 -87.83 1418.31 -167.63 1554.67 -226.55 1622.07 -266.15 1604.74 -280.16 1501.95 -271.3 1343.01 -242.93 1165.46 -198.25 1021.34 -143.06 959.85 -77.28 1002.1 -8.66 1144.13 58.49 1345.04 128.86 1546.69 193.68 1683 251.07 1706.83 308.65 1607.9 357.85 1417.15 398.17 1205.44 438.32 1046.74 469.79 1003.39 492.26Q1003.39 492.26 1003.39 492.26" opacity="0.77"></path><path d="M956.9 135.34C1038.26 156.2 1206.75 170.87 1405.73 180.04 1575.74 189.85 1661.84 195.5 1641.33 198.71 1522.3 204.75 1340.78 211.3 1148.93 221.17 994.74 237.76 917.87 261.98 931.2 297.04 1027.72 342.77 1176.42 402.59 1337.22 477.82 1476.98 562.86 1560 660.68 1572.13 767.64 1513.64 872.7 1397.67 974.92 1248.84 1065.39 1087.9 1132.95 944.26 1173.31 835.96 1179.09 770.79 1149.61 754.29 1084.35 779.81 988.33 841.95 877.77 924.63 761.89 1013.74 658.4 1106.03 588.48 1184.51 562.17 1243.44 589.57 1286.13 670.53 1305.57 796.82 1304.68 951.31 1287.68 1106.79 1256.55 1239.2 1216.7 1322.73 1168.16 1340.4 1117.56 1287.2 1068.87 1171.11 1017.24 1018.22 971.11 857.15 932.5 723.75 893.37 651.21 862.93 655.5 842.06 738.85 821.2 883.54 810.4 1053.05 808.89 1208.31 806.85 1318.22 812.94 1357.15 825.22 1319.52 834.55 1214.54 846.5 1064.88 857.18 901.36 859.17 752.33 853.25 645.72 834.08 596.8 798.81 610.63 744.11 679.99 667.16 787.93 573.97 918.35 462.23 1044.69 337.78 1147.32 216.51 1215.94 102.77 1238.45 10.78 1215.19 -44.59 1150.32 -56.75 1053.52 -18.92 937.93 62.02 811.26 179.62 689.39 315.92 581.79 440.11 490.71 532.85 424.12 569.61 381.89 535.75 362.27 432.51 362.88 274.14 378.3 94.73 408.18 -70.96 444.28 -182.78 481.56 -211.41 523.69 -148.12 561.17 -5.7 591.6 174.36 621.81 345.92 643.21 456.89 655.47 469.35 666.56 377.11 669.05 202.97 663.33 -0.13 657.14 -170.73 643.58 -252.09 622.71 -216.31 601.85 -76.17 574.18 120.63 539.73 314.03 504.81 444.44 462.28 476.87 411.84 404.96 360.23 255.08 300.18 74.22 232.12 -90.56 163.83 -190.88 89.29 -203.6 11 -128 -62.43 15.9 -133.8 191.85 -197.95 365.06 -247.64 497.09 -281.51 566.57 -294.06 566.03 -284.01 502.17 -248.48 395.06 -187.27 262.43 -109.53 135.14 -16.31 34.24 83 -31.11 171.25 -48.64 242.02 -20.93 282.26 47.05 280.9 144.04 235.17 256.39 144.84 379.27 20.49 496.29 -126.05 599.74 -275.09 691.44 -401.65 762.69 -488.03 814.6 -517.17 851.28 -483.57 872.86 -390.56 884.07 -253.31 885.87 -101.57 883.67 38.12 881.54 135.06 875.76 164.67 874.12 119.63 878.86 5.62 882.84 -153.74 894.82 -325.36 915.69 -470.07 936.55 -553.46 965.81 -555.67 1002.47 -479.03 1038.37 -341.52 1080.07 -174.31 1125.2 -13.35 1166.68 110.8 1207.53 173.98 1243.59 168.11 1270.23 96.36 1285.71 -22.44 1285.2 -162.63 1269.45 -301.83 1233.46 -411.13 1176.03 -473.49 1106.84 -482.28 1023.07 -435.76 932.35 -344.12 852.17 -218.9 786.23 -79.79 748.1 55.4 750.25 176.06 796.43 267.37 889.14 324.2 1017.38 345.77 1170.72 334.07 1327.98 296.36 1459.73 235.75 1546.83 164.59 1569.09 91.68 1521.34 16.89 1409.53 -47.67 1254.94 -98.45 1034.14 -151.7 995.35 -166.02 1228.87 -138.34 1421.5 -110.36 1581.35 -78.25 1661.31 -44.93 1636.93 -8.79 1512.66 25.6 1323.39 56.42 1130.71 87.9 992.68 114.47 956.9 135.34Q956.9 135.34 956.9 135.34" opacity="0.14"></path><path d="M910.4 58.89C981.73 78.15 1130.25 99.95 1312.73 124.61 1482.84 149.93 1592.91 179.35 1616.94 213.92 1551.44 250.72 1413.81 294.5 1239.46 346.34 1066.14 401.68 933.85 466.04 867.4 539.29 876.47 614.64 953.92 696.66 1077.76 782.59 1225.13 863.88 1361.65 942.08 1462.58 1011.58 1515.1 1064.85 1508.9 1100 1449.31 1111.59 1345.18 1098.39 1214.66 1058.23 1076.69 991.8 942.22 908.51 829.81 810.88 747.47 709 696.63 619.49 679.57 549.42 690.75 511.06 727.55 514.19 779.8 560.84 838.91 650.13 905.85 771.58 968.04 913.24 1021.1 1056.44 1070.59 1178.48 1107.24 1262.76 1131.2 1293.78 1149.37 1266.03 1156.57 1181.78 1154.91 1053.53 1149.72 906.51 1138.68 764.01 1123.69 653.73 1107.71 599.89 1089.71 612.69 1070.45 692.35 1051.19 824.43 1031.12 979.98 1009.59 1128.15 987.05 1243.91 961.14 1303.83 930 1299.15 895.33 1232.51 852.45 1116.44 799.33 972.39 740.43 821.91 669.57 690.15 586.7 595.3 500.26 547.89 405.52 552.15 306.96 602.44 216.22 691.27 133.27 801.07 66.78 914.99 25.91 1022.74 14.31 1106.85 37.59 1159.24 92.38 1178.18 178.33 1160.87 287.55 1112.21 400.29 1036.38 506.76 942.62 588.15 840.1 625 731.67 609.75 628.56 537.18 536.11 416.19 453.17 261.01 386.24 96.46 335.17 -44.56 297.25 -137.7 273.04 -160.89 259.45 -108.56 255.48 11.18 257.47 173.63 262.16 401.33 275.94 434.28 293.15 202.5 289.21 16.2 284.77 -134.26 273.19 -205.59 253.93 -176.69 234.68 -56.54 208.19 119.29 175.12 304.83 142.37 450.64 103.75 522.13 60.51 504.46 18.97 406.31 -25.19 256.39 -69.67 88.38 -109.31 -54.11 -145.51 -140.32 -174.93 -155.35 -194.73 -95.96 -203.07 22.11 -196.79 177.82 -177.34 339.54 -141.13 479.93 -87.88 581.49 -25.12 629.31 49.31 623.19 130.19 567.46 205.15 477.39 272.46 370.73 323.07 257.46 346.49 158.68 339.77 84.99 298.11 38.11 222.98 25.25 117.43 43.26 -10.36 88.69 -144.33 155.11 -272.8 234.21 -378.83 325.26 -446.31 417.11 -466.28 504.3 -433 591.1 -352.29 667.96 -233.08 733.85 -93.48 795.45 39.7 846.54 146.58 888.41 205.81 927.21 203.09 959.21 137.53 985.93 17.98 1011.73 -133.98 1034 -291.48 1053.26 -423.58 1072.52 -503.28 1088.32 -514.15 1100.04 -456.54 1110.84 -342.46 1115.81 -194.3 1113.34 -39.84 1107.8 95.84 1092.4 189.32 1065.75 227.95 1034.81 207.82 992.16 136.09 938.75 28.18 884.93 -100.9 825.63 -226.86 766.2 -331.15 718.72 -403.27 683 -431.26 667.24 -414.34 678.9 -355.93 720.41 -264.42 794.84 -152.17 896.08 -27.54 1021.31 94.12 1159.81 202.66 1291.72 294.33 1405.85 360.94 1484.33 401.71 1513.22 417.68 1486.87 411.2 1405.38 387.61 1285.05 347.8 1142 300.3 1003.46 250.64 902.55 196.33 858.83 146.86 887.96 104.89 988.26 65.02 1143.28 34.87 1322.16 14.47 1536.65 -6.46 1481.39 -5.46 1229.61 10.5 1057.57 23.35 939.33 39.61 910.39 58.88Q910.4 58.89 910.4 58.89" opacity="0.26"></path><path d="M863.89 343.93C925.72 361.59 1054.76 386.47 1218.85 418.23 1383.16 450.04 1508.21 488.79 1568.33 534 1553.61 579.02 1467.65 629.94 1330.69 685.63 1168.2 739.52 1013.01 796.01 892.17 852.69 816.48 948.05 964.67 1017.05 1208.76 1030.33 1412.74 981.61 1455.21 862.84 1339.91 694.7 1117.94 545.48 886.66 456.56 713.86 488.39 613.3 650.25 593.87 899.6 620.68 1136.73 648.62 1211.8 678.05 1244.4 705.32 1227.83 735.59 1164.71 760.12 1061.12 777.24 930.89 794.69 796.25 803.78 674.93 804.02 587.37 804.17 550.54 795.56 570.35 777.91 645.84 760.25 765.5 733.97 906.78 699.43 1045.87 664.79 1163.34 621.81 1238.73 571.07 1262.09 520.65 1232.01 463.42 1153.35 401.11 1039.36 341.81 904.67 281.02 769.02 222.48 649.45 134.47 504.36 95.75 522.1 141.89 664.11 260.27 868.1 440.85 1034.32 616.54 1109.64 685.55 1086.59 601.22 975.99 360.47 822.5 79.62 644.44 -100.23 486.48 -50.43 364.08 57.46 310.36 201.15 265.71 353.69 228.93 480.68 196.48 558.21 169.77 566.11 147.2 499.18 126.87 368.94 108.63 201.13 91.31 33.55 74.58 -97.27 57.6 -159.1 39.94 -136.39 22.29 -35.18 4.37 118.66 -13.28 291.19 -30.34 443.13 -45.99 543.3 -58.96 573.43 -69.7 530.19 -75.7 427.09 -75.29 284.16 -70.54 134.2 -57.26 6.35 -34.13 -108.3 27.05 14.26 126.86 277.69 250.5 546.11 349.57 683.82 409.49 664.96 386.28 520.11 264.7 340.25 56.63 200.62 -184.12 118.24 -362.92 120.75 -412.35 180.79 -293.17 227.14 -186.56 278.55 -62.4 331.01 62.31 387.82 166.35 441.53 236.6 489.89 259.89 539.3 229.73 581.76 149.17 616.29 28.23 650.91 -114.34 677.32 -257.41 694.97 -377.08 712.63 -452.61 721.12 -470.66 720.88 -430.36 720.75 -339.33 712.18 -212.82 696.06 -71.36 681 65.68 660 177.72 635.22 250.81 614.79 277.37 594.75 256.27 578.99 194.15 580.14 -17.08 635.79 -234.77 772.59 -359.88 966.65 -354.95 1197.2 -224.16 1388.34 -28.67 1453.48 185.75 1357.63 355.22 1125.98 458.36 899.32 499.5 808.42 488.66 948.97 454.49 1089.76 428.41 1251.21 403.28 1404.1 381.42 1517.17 357.77 1568.84 339.55 1545.52 327.83 1452.17 315.91 1305.42 311.05 1136.38 313.63 986.02 316.26 886.6 326.28 863.89 343.93Q863.89 343.93 863.89 343.93" opacity="0.36"></path><path d="M817.39 688.39C983.08 720.5 1281.78 767.42 1495.71 822.5 1490.31 870.76 1272.27 913.31 988.73 934.46 790.78 929.32 776.31 883.39 918.21 790.26 1141.07 677.69 1322.42 546.84 1395.22 434.89 1350.07 391.89 1209.5 437.15 1031.9 584.76 841.4 797.02 688.76 1020.55 584.13 1170.69 512.09 1182.53 474.15 1043.74 451.13 806.84 438.55 593.09 420.52 503.99 388.42 599.34 356.31 836.01 311.66 1079.79 263.7 1207.97 226.18 1168.59 205.72 982.8 222.13 742.34 271.13 536.67 370.9 442.13 511.92 469.98 640.05 599.43 734.54 766.92 737.61 913.34 622.73 1016.46 403.33 1043.82 147.04 1006.29 -28.28 917.09 -42.6 800.91 131.81 683.36 391.83 558.2 591.59 452.78 584.61 372.44 358.28 294.62 53.08 239.64 -112.6 207.54 -11.54 175.43 276.74 167.71 542.01 184.99 616.33 204.78 466.37 251.8 210.8 321.33 -4.02 383.25 -48.96 446.57 79.99 486.3 320.33 474.38 558.89 400.95 713.73 255.77 758.54 67.28 700.92 -138.26 591.69 -301.16 452.69 -362.46 340.7 -296.72 273.41 -114.61 233.29 102.31 233.18 269.86 256.41 296.89 290.3 156.35 327.79 -93.9 359.89 -330.58 391.99 -425.99 417.19 -330.42 443.84 -104.3 481.15 144.99 539.66 302.08 635.42 313.79 758.33 187.2 923.19 -7.54 1111.67 -186.38 1270.37 -300.58 1374.08 -307.78 1371.35 -222.72 1258.58 -68.69 1058.09 108.24 851.16 270.28 755.63 412.89 829.36 511.69 1067.72 572.46 1346.82 606.94 1515.05 622.79 1453.12 635.07 1200.24 640.54 918.45 656.29 817.39 688.39Q817.39 688.39 817.39 688.39" opacity="0.13"></path><path d="M770.67 727C908.57 755.89 1171.57 772.96 1399.63 775.01 1475.59 772.17 1359.31 746.26 1124.64 693.18 876.95 632.23 727.38 547.71 716.05 452.06 831.41 378.43 1007.77 331.39 1172.28 338.5 1292.1 413.76 1326.68 557.73 1287.14 752.12 1188.73 945.12 1061.95 1094.17 936.54 1144.7 805.75 1076.84 699.44 904.09 621.33 684.9 547.38 514.19 496.7 458.22 467.81 552.64 438.92 762.55 433.19 988.75 452.64 1136.98 476.27 1158.2 530.02 1045.28 610.74 850.05 686.08 633.52 765.28 467.09 819.16 387.53 814.17 402.16 738.11 490.93 580.43 614.09 378.05 752.82 167.44 863 22 929.57 3.24 960.31 126.9 948.42 353.41 908.93 566.91 848.56 666.74 781.75 579.63 721.31 340.42 656.9 71.57 607.78 -66.32 578.89 14.73 550 261.38 542.7 522.99 552.63 663.42 558.58 617.1 572.83 431.09 583.14 195.99 572.56 34.18 536.87 5.02 461.6 108.82 350.51 299.97 198.85 506.57 22.25 688.44 -138.76 798.21 -261.78 836.01 -306.51 812.05 -257.05 752.34 -116.53 686.69 78.8 609.14 252.86 553.17 349.35 525.74 317.02 500.73 157.67 502.89 -74.35 531.79 -284.28 560.68 -378.75 614.93 -316.97 694.43 -135.13 776.34 95.21 884.88 284.42 1012.49 373.48 1128.21 344.14 1235.5 221.02 1303.99 58.1 1310.72 -106.21 1242.43 -215.93 1098.43 -253.33 929.69 -222.58 772.79 -134.07 699.07 -15.9 758.32 124.26 946.03 256.36 1202.31 367.38 1409.51 470.53 1472.27 549 1342.99 606.33 1092.53 658.77 851.73 698.11 770.67 727Q770.67 727 770.67 727" opacity="0.84"></path><path d="M724.4 419.23C839.06 444.91 1063.98 448.14 1287.3 430.86 1418.31 414.17 1398.7 379.41 1250.01 333.11 1028.7 296.91 819.93 264.31 685.61 250.85 649.67 271.64 708.25 332.65 822.96 441.43 970.1 583.73 1098.59 752.31 1185.38 918.04 1235.84 1040.16 1238.6 1094.35 1208.71 1056.38 1154.82 936.27 1091.68 756.57 1033.79 569.26 971.21 442.23 924.35 414.87 898.67 506.35 872.99 689.81 869.7 894.34 883.85 1050.9 893.31 1118.99 909.74 1076.89 919.11 946.92 904.5 763.49 859.45 578.53 769.41 432.9 643.04 344.62 477.67 325.13 296.88 360.67 148.5 441.95 59.48 539.38 68.68 630.91 176.26 720.25 361.99 783.3 564.48 818.66 694.34 840.94 699.34 841.77 558.41 828.37 325.19 810.28 95.06 786.52 -19.59 760.84 40.61 735.15 243.05 708.77 485.87 678.43 667.98 643.4 715.93 595.85 628.63 529.06 444.97 449.2 248.64 343.86 108.98 214.94 55.82 83.83 104.59 -50.47 225.83 -165.4 394.74 -234.6 564.69 -245.56 706.56 -184.02 820.67 -65.13 890.84 96.78 927.13 261.39 938.89 372.53 937.58 400.01 937.38 322.02 931.47 155.54 938.63 -54.18 964.31 -237.64 989.98 -329.12 1032.96 -296.56 1087.3 -159.62 1135.94 37.59 1183.97 231.91 1216.73 370.84 1224.95 427.64 1197.09 396.48 1122.57 301.1 1020.29 162.11 887.21 23.98 751.96 -84.65 664.36 -159.77 646.01 -183.91 725.88 -165.12 892.27 -112.07 1111.62 -37.18 1314.12 43.51 1420.27 134.31 1386.99 215.79 1214.82 280.92 981.93 346.63 784.66 393.54 724.39 419.22Q724.4 419.23 724.4 419.23" opacity="0.26"></path><path d="M677.89 90.86C769.78 113.33 954.76 125.83 1159.31 131.54 1320.29 140.65 1379.74 149.71 1328.91 166.18 1187.3 195.83 1000.85 244.13 821.23 317.87 677.85 411.04 600.94 530.05 589.3 667.52 635.7 800.65 716.65 922.46 806.74 1009.41 905.86 1042.03 985.56 1010.83 1039.26 913.09 1082.45 772.39 1101.32 609.1 1101.41 462.65 1096.8 377.17 1081.59 373.29 1059.12 459.84 1036.65 617.31 1007.98 797.01 970.21 951.06 927.74 1049.87 868 1067.48 785.86 1007.89 693.23 886.23 576.52 731.57 442.77 575.75 318.04 435 204.83 333.24 128.97 275.42 111.17 258.8 161.43 276.72 281.41 314.82 437.63 372.58 603.93 430.29 729.07 478.02 763.43 527.53 691.19 560.28 521.53 574.29 308.32 587.2 118.78 582.61 26.89 560.14 70.24 537.67 229.94 498.38 441.08 443.09 635.74 386.7 749.94 313.08 759.71 224.63 669.96 137.96 519.92 43.24 359.65 -49.14 176.75 -146.97 208.57 -118.98 364.93 35.92 493.5 168.33 612.72 302.84 712.09 408.04 804.8 451.16 875.06 420.79 925.62 313.33 972.12 150.63 1005.6 -33.61 1028.07 -191.09 1050.55 -277.68 1060.94 -269.29 1056.82 -175.15 1048.63 -20.04 1019.25 156.04 965.48 313.22 905.06 427.45 822.85 478.81 728.9 469.6 652.14 406.05 594.48 310.89 580.16 207.21 625.4 99.18 734.29 12.44 899.47 -46.09 1083.14 -85.2 1253.33 -96.5 1359.55 -87.21 1366.25 -64.73 1264.85 -32.92 1078.86 0.35 876.39 37.01 721.24 68.39 677.89 90.86Q677.89 90.86 677.89 90.86" opacity="0.18"></path><path d="M631.28 90.06C702.12 109.32 847.24 136.85 1021.75 173.33 1186.93 211.92 1296.03 263.09 1329.03 328.5 1285.84 398.75 1179.02 484.61 1037.41 583.38 879.86 680.66 738.44 780.87 629.92 872.75 555.28 941.06 520.91 980.85 517.74 980.3 541.5 938.58 578.23 853.39 615.68 732.47 660.93 600.31 695.4 470.2 713.74 368.05 732.65 319.53 733.41 333.61 714.15 413.31 694.89 545.4 656.52 698.06 601.29 840.22 546.62 953.02 477.12 1012.89 398.48 1015.02 327.66 963.88 259.2 869.9 205.76 751.86 179.25 619.58 185.96 494.16 235.36 387.53 318.63 298.84 437.22 237.12 574.71 199.43 696.27 181.04 785.8 177.77 814.88 181.79 767.76 194.59 647.7 205.53 475.09 209.17 293.15 214.67 144.12 208.96 73.28 189.7 102.7 170.44 222.38 138.53 393.85 96.72 576.23 56.74 722.66 10.76 804.76 -35.41 812.8 -72.8 753.36 -101.25 650.17 -112.54 518.41 -104.54 392.9 -70.47 293.81 -7.02 221.47 74.35 190.2 176.93 194.16 289.15 225.94 387.14 277.74 463.85 337.03 500.87 406.49 484.62 470.72 413.79 522.81 293.55 576.3 143.96 614.09 -12.59 633.35 -144.68 652.61 -224.38 652.43 -234.55 635.26 -178.6 619.5 -69.02 590.31 72.04 554.23 218.32 528.32 353.36 508.24 455.82 506.15 517.6 531.87 538.2 590.79 521.25 688.37 478.19 812.71 411.55 961.06 338.99 1112.88 271.39 1236.11 202.31 1312.83 148.17 1318.91 111.3 1250.93 79.27 1115.46 63.13 940.51 60.87 776.48 60.72 660.7 70.8 631.28 90.06Q631.28 90.06 631.28 90.06" opacity="0.88"></path><path d="M584.88 417.85C750.57 449.96 1038.72 534.68 1239.85 655.4 1262.29 763.85 1104.62 871.96 886.35 924.69 664.43 892.89 520.4 755.12 448.96 538.88 414.84 353.08 397.2 271.49 365.1 366.9 333 603.57 289.47 838.96 267.96 959.84 283.77 941.07 377.7 799.35 557.54 616.56 733.75 421.53 857.37 274.84 811.39 184.06 586.74 116.07 285.57 74.23 119.88 42.13 220.93 10.03 504.87 -9.29 762.6 3.06 869.36 38.21 795.65 134.8 639.73 287.76 452.9 428.47 334.64 536.14 295.06 531.38 289.94 386.97 318.53 138.57 350.63 -98.09 382.73 -193.5 415.3 -98.9 476.06 110.42 571.27 350.19 739.63 522.01 968.54 595.88 1166.53 585.23 1274.29 527.22 1191.06 474.4 956.86 409.31 685.93 385.75 584.88 417.85Q584.88 417.85 584.88 417.85" opacity="0.91"></path><path d="M538.4 726.59C653.06 752.27 869.3 792.92 1072.84 831.58 1205.9 853.1 1215.75 841.99 1134.79 775.98 991.11 672.99 840.85 521.08 724.53 358.4 612.22 251.5 541.92 228.87 516.24 320.35 490.56 503.82 511.92 700.95 579.74 844.21 651.55 916.02 761.73 896.31 871.75 816.49 919.04 693.57 881.96 566.97 730.08 466.2 507.71 365.72 281.06 299.5 166.4 273.82 226.61 248.13 425.83 265.43 654.82 321.4 841.18 377.67 922.73 464.19 912.49 553.44 830.79 599.6 732.88 592.08 662.86 501.45 591.19 339.36 565.35 131.82 591.03 -51.64 616.69 -143.12 691.45 -110.08 807.61 15.63 922.13 197.13 1060.14 376.28 1175.52 512.93 1219.43 612.6 1165.15 663.79 997.64 686.78 787.48 692.62 598.66 700.9 538.39 726.58Q538.4 726.59 538.4 726.59" opacity="0.52"></path><path d="M491.9 689.27C563.23 708.53 702.5 706.11 858.66 679.76 1010.78 647.34 1112.53 583.29 1155.97 491.16 1157.26 399.67 1121.3 299.06 1074.1 215.05 1015.07 177.67 968.8 194.19 949.54 273.85 930.27 405.94 939.85 552.84 965.5 680.96 979.32 786.41 985.22 844.15 958.68 857.7 890 840.53 767.83 799.51 601.59 753.95 431.31 700.34 284.23 658.47 212.9 639.21 241.8 619.94 359.36 625.12 518.56 645.35 691.25 657.53 833.16 668.49 926.17 660.41 980.99 621.62 998.52 543.46 1000.11 423.89 988.54 281.64 985.99 126.94 1005.25 -5.14 1024.51 -84.8 1063.76 -93.51 1108.71 -42.02 1140.5 56.1 1153.03 177.14 1123.46 293.87 1055.71 411.24 934.23 505.35 775.68 571.15 630.6 630.89 520.83 670 491.89 689.26Q491.9 689.27 491.9 689.27" opacity="0.79"></path><path d="M445.4 345.38C560.06 371.06 758.95 310.35 907.77 210.5 1028.48 149.25 1062.87 135.87 1037.19 227.35 1011.51 410.84 930.61 593.09 776.25 699 593.77 769.64 374.06 776.76 259.4 751.08 319.63 725.39 512.44 671.77 695.76 567.47 868.24 427.91 967.42 224.84 993.1 41.35 1018.78 -50.12 966.11 -15.92 827.29 78.97 677.62 212.49 505.63 319.69 445.4 345.38Q445.4 345.38 445.4 345.38" opacity="0.74"></path></g></svg>